<?xml version="1.0" encoding="UTF-8" standalone="no" ?>
<!DOCTYPE svg PUBLIC "-//W3C//DTD SVG 1.1//EN" "http://www.w3.org/Graphics/SVG/1.1/DTD/svg11.dtd">
<svg xmlns="http://www.w3.org/2000/svg" xmlns:xlink="http://www.w3.org/1999/xlink" version="1.1" width="1080" height="1080" viewBox="0 0 1080 1080" xml:space="preserve">
<desc>Created with Fabric.js 5.2.4</desc>
<defs>
</defs>
<g transform="matrix(1 0 0 1 540 540)" id="aebc8bc5-ee3f-4287-a0bc-c0d2ffe5fe7f"  >
<rect style="stroke: none; stroke-width: 1; stroke-dasharray: none; stroke-linecap: butt; stroke-dashoffset: 0; stroke-linejoin: miter; stroke-miterlimit: 4; fill: rgb(255,255,255); fill-rule: nonzero; opacity: 1; visibility: hidden;" vector-effect="non-scaling-stroke"  x="-540" y="-540" rx="0" ry="0" width="1080" height="1080" />
</g>
<g transform="matrix(1 0 0 1 540 540)" id="1e2a4464-8240-490b-a7c9-a28d1ae8e956"  >
</g>
<g transform="matrix(2.08 0 0 2.08 540 509.5)"  >
<g style="" vector-effect="non-scaling-stroke"   >
		<g transform="matrix(1 0 0 1 0 0)"  >
<rect style="stroke: none; stroke-width: 1; stroke-dasharray: none; stroke-linecap: butt; stroke-dashoffset: 0; stroke-linejoin: miter; stroke-miterlimit: 4; fill: rgb(255,255,255); fill-rule: nonzero; opacity: 1; visibility: hidden;" vector-effect="non-scaling-stroke"  x="-540" y="-540" rx="0" ry="0" width="1080" height="1080" />
</g>
		<g transform="matrix(1 0 0 1 0 0)"  >
<path style="stroke: rgb(74,205,141); stroke-width: 0; stroke-dasharray: none; stroke-linecap: butt; stroke-dashoffset: 0; stroke-linejoin: miter; stroke-miterlimit: 4; fill: rgb(74,205,141); fill-rule: nonzero; opacity: 1;" vector-effect="non-scaling-stroke"  transform=" translate(-230.82, -230.82)" d="M 437.161 404.935 L 427.369 404.935 C 426.14500000000004 392.696 415.129 382.904 401.665 382.904 L 384.529 382.904 L 384.529 231.127 L 401.665 231.127 C 411.457 231.127 421.249 225.006 424.92100000000005 216.43900000000002 L 435.93800000000005 216.43900000000002 L 435.93800000000005 216.43900000000002 C 450.62600000000003 216.43900000000002 461.64200000000005 205.42300000000003 461.64200000000005 190.735 C 461.64200000000005 180.943 456.74600000000004 173.59900000000002 449.40200000000004 168.703 L 247.441 12.03 C 237.649 4.685999999999999 225.409 4.685999999999999 215.617 12.03 L 9.986 171.15 C 1.418000000000001 177.27 -2.2539999999999996 189.51 1.418000000000001 199.30200000000002 C 5.090000000000002 209.09400000000002 14.882000000000001 216.43800000000002 25.898000000000003 216.43800000000002 L 36.914 216.43800000000002 C 41.81 225.00600000000003 50.378 231.126 60.17 231.126 L 77.306 231.126 L 77.306 381.678 L 60.17 381.678 C 46.706 381.678 36.914 391.46999999999997 34.466 403.71 L 25.898000000000003 403.71 C 11.210000000000003 403.71 0.19400000000000261 414.726 0.19400000000000261 429.414 C 0.19400000000000261 444.102 11.210000000000003 455.118 25.898000000000003 455.118 L 435.93800000000005 455.118 C 450.62600000000003 455.118 461.64200000000005 444.101 461.64200000000005 429.414 C 461.642 415.951 450.625 404.935 437.161 404.935 z M 214.394 231.127 L 248.66500000000002 231.127 L 248.66500000000002 381.679 L 214.394 381.679 L 214.394 231.127 z M 333.121 382.903 L 298.85 382.903 L 298.85 231.127 L 333.12100000000004 231.127 L 333.12100000000004 382.903 z M 231.53 64.663 L 362.497 165.03 L 100.562 165.03 L 231.53 64.663 z M 128.714 231.127 L 162.986 231.127 L 162.986 381.679 L 128.714 381.679 L 128.714 231.127 z" stroke-linecap="round" />
</g>
</g>
</g>
</svg>